<svg xmlns="http://www.w3.org/2000/svg" viewBox="0 0 64 64" fill="white" stroke="white" stroke-linecap="round" stroke-linejoin="round">
  <!-- Cerebro forma -->
  <path d="M32 6C20 6 12 14 12 24c0 5 2 9 5 12 2 2 3 5 3 8v2h24v-2c0-3 1-6 3-8 3-3 5-7 5-12 0-10-8-18-20-18z" fill="white" stroke="none"/>
  <!-- Surco del cerebro -->
  <path d="M32 10v20" stroke="rgba(0,0,0,0.3)" stroke-width="3" fill="none"/>
  <path d="M20 20c4 2 8 2 12 0" stroke="rgba(0,0,0,0.3)" stroke-width="2.5" fill="none"/>
  <path d="M32 20c4 2 8 2 12 0" stroke="rgba(0,0,0,0.3)" stroke-width="2.5" fill="none"/>
  <path d="M18 28c4-1 8 0 10 2" stroke="rgba(0,0,0,0.3)" stroke-width="2.5" fill="none"/>
  <path d="M36 30c2-2 6-3 10-2" stroke="rgba(0,0,0,0.3)" stroke-width="2.5" fill="none"/>
  <!-- Ojos en espiral -->
  <circle cx="24" cy="22" r="5" fill="rgba(0,0,0,0.5)"/>
  <path d="M24 19c2 0 3 1 3 3s-1 2.5-2.5 2.5-2-0.8-2-2 0.5-1.5 1.5-1.5" fill="none" stroke="white" stroke-width="1.5"/>
  <circle cx="40" cy="22" r="5" fill="rgba(0,0,0,0.5)"/>
  <path d="M40 19c2 0 3 1 3 3s-1 2.5-2.5 2.5-2-0.8-2-2 0.5-1.5 1.5-1.5" fill="none" stroke="white" stroke-width="1.5"/>
  <!-- Base -->
  <rect x="20" y="46" width="24" height="4" rx="2" fill="white"/>
  <rect x="24" y="50" width="16" height="3" rx="1.5" fill="white"/>
  <!-- Chispas -->
  <line x1="8" y1="16" x2="12" y2="18" stroke="white" stroke-width="3"/>
  <line x1="56" y1="16" x2="52" y2="18" stroke="white" stroke-width="3"/>
  <line x1="6" y1="28" x2="11" y2="28" stroke="white" stroke-width="3"/>
  <line x1="58" y1="28" x2="53" y2="28" stroke="white" stroke-width="3"/>
  <line x1="32" y1="1" x2="32" y2="5" stroke="white" stroke-width="3"/>
</svg>