<svg xmlns="http://www.w3.org/2000/svg" viewBox="0 0 64 64" fill="white" stroke="white" stroke-linecap="round" stroke-linejoin="round">
  <!-- Cara redonda -->
  <circle cx="32" cy="30" r="24" fill="white"/>
  <!-- Ojos cerrados llorando (arcos tristes) -->
  <path d="M20 26c0-3 3-5 5-5s5 2 5 5" fill="none" stroke="rgba(0,0,0,0.5)" stroke-width="3"/>
  <path d="M34 26c0-3 3-5 5-5s5 2 5 5" fill="none" stroke="rgba(0,0,0,0.5)" stroke-width="3"/>
  <!-- Boca triste -->
  <path d="M22 40c3-4 7-6 10-6s7 2 10 6" fill="none" stroke="rgba(0,0,0,0.5)" stroke-width="3"/>
  <!-- Lágrimas gruesas -->
  <path d="M22 30c0 0-4 8-4 13c0 3 2 5 4 5s4-2 4-5c0-5-4-13-4-13z" fill="rgba(0,0,0,0.2)" stroke="none"/>
  <path d="M42 30c0 0-4 8-4 13c0 3 2 5 4 5s4-2 4-5c0-5-4-13-4-13z" fill="rgba(0,0,0,0.2)" stroke="none"/>
  <!-- Cejas tristes -->
  <line x1="18" y1="18" x2="28" y2="20" stroke="rgba(0,0,0,0.4)" stroke-width="2.5"/>
  <line x1="46" y1="18" x2="36" y2="20" stroke="rgba(0,0,0,0.4)" stroke-width="2.5"/>
</svg>